<svg height="45" viewBox="0 0 1440 45" width="1440" xmlns="http://www.w3.org/2000/svg"><path d="m0 .00520615c13.2997336-.13911818 26.8036857 2.54387527 39.963019 3.97480511 9.5472176.99370128 22.6682599.775087 31.1433301 4.11392329 7.942181 3.25958545 16.450961 5.60273585 25.2592828 6.95590895 6.8686111 1.0378537 13.6433621 2.4220133 20.2814551 4.1437343 6.803031 1.7389773 14.040026 1.8482844 20.996221 3.2692772 3.829098.785024 7.517796 1.7886623 11.270312 2.2656389 7.824123.9937013 16.873558 0 24.825318 0 6.643967.0093121 13.270572.5285478 19.783673 1.550174 5.820229.8645201 11.487294 2.9016078 17.320286 3.9748051 6.726449 1.1924416 13.491189 1.1825046 20.421856.9937013 6.423734-.172175 12.822663-.7102114 19.14549-1.6097961 6.483939-.9937012 12.355223-2.9811038 18.826398-3.915183 9.828018-1.3613707 19.298654-3.3189623 29.113908-4.8293882 5.354608-.8833556 10.81293-1.3296217 16.28643-1.3315597 1.710331 0 3.510007-.1093071 5.220337 0 2.961169.1391182 5.462847 1.1725675 8.372961 1.4011188 5.271391.4074175 10.313037 1.0632604 15.661011 1.1825045 5.781938.1291812 11.117147 1.9377175 16.988431 1.4011188 4.071607-.3676695 8.360197-1.0930714 12.393514-1.6495441 8.053869-1.1129454 16.28643-1.7787253 24.51899-2.6233714 13.580534-1.3911818 26.803686-2.6034973 40.333165-4.5312778 7.173177-.9937013 14.269772-2.0569616 21.430185-3.2394662 3.829098-.6359688 7.887942-1.1725675 11.729804-1.93771746 3.841861-.76514998 7.658196-.88439414 11.23202-1.58992204 3.739753-.74527596 6.037211-1.35143374 10.057764-1.33155972h17.154359c5.399028 0 11.027802-.35773246 16.414067-.06955909 3.829098.21861429 7.390159 1.28187465 11.270311 1.43092984 4.965064.18880325 9.993946-.37760648 14.95901-.12918116 6.943431.34779545 13.248679 1.4011188 20.33251 1.33155971 5.085071.04068908 10.101123.92130542 14.7165 2.58362332 10.695947 3.4183324 23.114988 5.5150421 34.066208 7.5123817 2.744187.5067876 5.182046 0 7.926233.2186142 3.152624.2186143 6.011683 1.1924416 9.151544 1.4309299 5.922338.4670396 11.946785-.5862838 17.869124.2285513 5.577719.76515 11.066093.6856539 16.784212 1.2918116 4.923528.5247029 9.877828.8563553 14.844137.9937013 4.875718.1490552 8.934562 1.7091662 13.682643 2.335198 5.781938.76515 11.742567.5266617 17.562796 1.2222526 3.573825.4272915 6.930667 1.2918116 10.491728 1.6892922 4.926773.5465357 9.585509 1.599859 14.461227 2.2656389 14.928462 1.9355768 30.036526 2.9093919 45.170592 2.9115447 13.095515.0993701 23.178807-2.7426155 34.883083-6.5385544 2.217392-.6694437 4.518968-1.1557126 6.866849-1.4508039 4.492808-.785024 5.845756-2.8022376 9.330235-4.4517817 5.105464-2.3948201 12.661551-3.9748051 18.520071-4.4915298 17.039485-1.579985 33.976862 3.4183324 50.837657 4.0244902 3.829098.1391182 6.713685 1.0831344 10.415146 1.2520636 2.884587.1391182 5.526665-.1987402 8.411252.2285513 4.04608.6061578 7.658196 2.3650091 11.487294 3.3388363 4.693534 1.2855534 9.518397 2.2595441 14.422936 2.9115448 2.437859.2583623 4.735317-.1391182 7.224231.2583623s3.829098 1.0930714 6.38183 1.0930714c6.011684 0 11.921258-2.29545 17.869124-2.6432454 7.722014-.4571026 15.08665-3.2692772 22.74484-4.2431045 16.66934-2.1265207 32.75155-5.8628375 49.11456-9.1023037 11.66599-2.3053869 22.36194-4.80951414 34.65334-4.81945116h18.34138c3.58659 0 5.70536-.60615778 9.01114-1.04338634 3.76498-.34663775 7.56136-.43972841 11.3469-.27823636h41.71164c8.11769 0 15.86523 1.28187465 23.88081 1.3216227 3.25473 0 5.01611-.10930714 8.05387.91420516 5.41179 1.8085363 12.11271 4.0940493 18.04781 4.3325376 4.50557.1888032 7.07107 1.2222526 11.81915 1.1924415 9.23238-.0596221 18.46051-.0596221 27.68438 0 6.7775 0 12.50838-1.5302999 19.06891-2.2954499 3.66317-.4372286 7.24975-.1093072 10.92569-.5763468 3.19091-.4074175 6.4967-1.550174 9.39405-1.9874025 7.81136-1.25206363 18.34138-.6757169 25.79536.7055279 7.08383 1.3216227 15.8397.2484253 23.16604.2881734 8.06663 0 15.08665-2.71280453 23.15328-2.59356038 4.35241.06955909 7.44121-1.11294543 11.65322-1.25206361s7.32634-1.35143374 11.60217-1.33155971c7.23699 0 16.23537-1.13281946 23.20433.28817337 1.74862.35773246 3.24197.72540193 5.01612.99370127 2.02942.31798441 2.97393.99370128 4.85019 1.36137076 3.35684.63596881 8.18151-.06955909 11.67875-.06955909v35.77324599h-1442z" fill="#003757"/></svg>