<svg height="103" viewBox="0 0 103 103" width="103" xmlns="http://www.w3.org/2000/svg"><path d="m16.4486692 98.2824427c1.2977642 0 2.3498099 1.0560612 2.3498099 2.3587783 0 1.302718-1.0520457 2.358779-2.3498099 2.358779s-2.3498099-1.056061-2.3498099-2.358779c0-1.3027171 1.0520457-2.3587783 2.3498099-2.3587783zm-14.09885931 0c1.29776416 0 2.34980988 1.0560612 2.34980988 2.3587783 0 1.302718-1.05204572 2.358779-2.34980988 2.358779-1.29776417 0-2.34980989-1.056061-2.34980989-2.358779 0-1.3027171 1.05204572-2.3587783 2.34980989-2.3587783zm42.29657791 0c1.2977642 0 2.3498099 1.0560612 2.3498099 2.3587783 0 1.302718-1.0520457 2.358779-2.3498099 2.358779-1.2977641 0-2.3498099-1.056061-2.3498099-2.358779 0-1.3027171 1.0520458-2.3587783 2.3498099-2.3587783zm-14.4904943 0c1.2977642 0 2.3498099 1.0560612 2.3498099 2.3587783 0 1.302718-1.0520457 2.358779-2.3498099 2.358779-1.2977641 0-2.3498098-1.056061-2.3498098-2.358779 0-1.3027171 1.0520457-2.3587783 2.3498098-2.3587783zm-13.7072243-14.1526717c1.2977642 0 2.3498099 1.0560612 2.3498099 2.3587786 0 1.3027175-1.0520457 2.3587786-2.3498099 2.3587786s-2.3498099-1.0560611-2.3498099-2.3587786c0-1.3027174 1.0520457-2.3587786 2.3498099-2.3587786zm-14.09885931 0c1.29776416 0 2.34980988 1.0560612 2.34980988 2.3587786 0 1.3027175-1.05204572 2.3587786-2.34980988 2.3587786-1.29776417 0-2.34980989-1.0560611-2.34980989-2.3587786 0-1.3027174 1.05204572-2.3587786 2.34980989-2.3587786zm42.29657791 0c1.2977642 0 2.3498099 1.0560612 2.3498099 2.3587786 0 1.3027175-1.0520457 2.3587786-2.3498099 2.3587786-1.2977641 0-2.3498099-1.0560611-2.3498099-2.3587786 0-1.3027174 1.0520458-2.3587786 2.3498099-2.3587786zm-13.7072243 0c1.2977642 0 2.3498099 1.0560612 2.3498099 2.3587786 0 1.3027175-1.0520457 2.3587786-2.3498099 2.3587786s-2.3498099-1.0560611-2.3498099-2.3587786c0-1.3027174 1.0520457-2.3587786 2.3498099-2.3587786zm27.8060836-13.759542c1.2977642 0 2.3498099 1.0560612 2.3498099 2.3587786 0 1.3027175-1.0520457 2.3587787-2.3498099 2.3587787-1.2977641 0-2.3498098-1.0560612-2.3498098-2.3587787 0-1.3027174 1.0520457-2.3587786 2.3498098-2.3587786zm41.9049429 0c1.297764 0 2.34981 1.0560612 2.34981 2.3587786 0 1.3027175-1.052046 2.3587787-2.34981 2.3587787-1.2977641 0-2.3498098-1.0560612-2.3498098-2.3587787 0-1.3027174 1.0520457-2.3587786 2.3498098-2.3587786zm-14.0988592 0c1.2977642 0 2.3498099 1.0560612 2.3498099 2.3587786 0 1.3027175-1.0520457 2.3587787-2.3498099 2.3587787s-2.3498099-1.0560612-2.3498099-2.3587787c0-1.3027174 1.0520457-2.3587786 2.3498099-2.3587786zm-70.1026616 0c1.2977642 0 2.3498099 1.0560612 2.3498099 2.3587786 0 1.3027175-1.0520457 2.3587787-2.3498099 2.3587787s-2.3498099-1.0560612-2.3498099-2.3587787c0-1.3027174 1.0520457-2.3587786 2.3498099-2.3587786zm-14.09885931 0c1.29776416 0 2.34980988 1.0560612 2.34980988 2.3587786 0 1.3027175-1.05204572 2.3587787-2.34980988 2.3587787-1.29776417 0-2.34980989-1.0560612-2.34980989-2.3587787 0-1.3027174 1.05204572-2.3587786 2.34980989-2.3587786zm42.29657791 0c1.2977642 0 2.3498099 1.0560612 2.3498099 2.3587786 0 1.3027175-1.0520457 2.3587787-2.3498099 2.3587787-1.2977641 0-2.3498099-1.0560612-2.3498099-2.3587787 0-1.3027174 1.0520458-2.3587786 2.3498099-2.3587786zm-14.4904943 0c1.2977642 0 2.3498099 1.0560612 2.3498099 2.3587786 0 1.3027175-1.0520457 2.3587787-2.3498099 2.3587787-1.2977641 0-2.3498098-1.0560612-2.3498098-2.3587787 0-1.3027174 1.0520457-2.3587786 2.3498098-2.3587786zm42.688213 0c1.2977641 0 2.3498098 1.0560612 2.3498098 2.3587786 0 1.3027175-1.0520457 2.3587787-2.3498098 2.3587787-1.2977642 0-2.3498099-1.0560612-2.3498099-2.3587787 0-1.3027174 1.0520457-2.3587786 2.3498099-2.3587786zm0-14.1526717c1.2977641 0 2.3498098 1.0560611 2.3498098 2.3587786 0 1.3027174-1.0520457 2.3587786-2.3498098 2.3587786-1.2977642 0-2.3498099-1.0560612-2.3498099-2.3587786 0-1.3027175 1.0520457-2.3587786 2.3498099-2.3587786zm-14.0988594 0c1.2977642 0 2.3498099 1.0560611 2.3498099 2.3587786 0 1.3027174-1.0520457 2.3587786-2.3498099 2.3587786-1.2977641 0-2.3498098-1.0560612-2.3498098-2.3587786 0-1.3027175 1.0520457-2.3587786 2.3498098-2.3587786zm41.9049429 0c1.297764 0 2.34981 1.0560611 2.34981 2.3587786 0 1.3027174-1.052046 2.3587786-2.34981 2.3587786-1.2977641 0-2.3498098-1.0560612-2.3498098-2.3587786 0-1.3027175 1.0520457-2.3587786 2.3498098-2.3587786zm-14.0988592 0c1.2977642 0 2.3498099 1.0560611 2.3498099 2.3587786 0 1.3027174-1.0520457 2.3587786-2.3498099 2.3587786s-2.3498099-1.0560612-2.3498099-2.3587786c0-1.3027175 1.0520457-2.3587786 2.3498099-2.3587786zm-70.1026616 0c1.2977642 0 2.3498099 1.0560611 2.3498099 2.3587786 0 1.3027174-1.0520457 2.3587786-2.3498099 2.3587786s-2.3498099-1.0560612-2.3498099-2.3587786c0-1.3027175 1.0520457-2.3587786 2.3498099-2.3587786zm-14.09885931 0c1.29776416 0 2.34980988 1.0560611 2.34980988 2.3587786 0 1.3027174-1.05204572 2.3587786-2.34980988 2.3587786-1.29776417 0-2.34980989-1.0560612-2.34980989-2.3587786 0-1.3027175 1.05204572-2.3587786 2.34980989-2.3587786zm42.29657791 0c1.2977642 0 2.3498099 1.0560611 2.3498099 2.3587786 0 1.3027174-1.0520457 2.3587786-2.3498099 2.3587786-1.2977641 0-2.3498099-1.0560612-2.3498099-2.3587786 0-1.3027175 1.0520458-2.3587786 2.3498099-2.3587786zm-13.7072243 0c1.2977642 0 2.3498099 1.0560611 2.3498099 2.3587786 0 1.3027174-1.0520457 2.3587786-2.3498099 2.3587786s-2.3498099-1.0560612-2.3498099-2.3587786c0-1.3027175 1.0520457-2.3587786 2.3498099-2.3587786zm-14.4904943-14.1526718c1.2977642 0 2.3498099 1.0560612 2.3498099 2.3587786 0 1.3027175-1.0520457 2.3587786-2.3498099 2.3587786s-2.3498099-1.0560611-2.3498099-2.3587786c0-1.3027174 1.0520457-2.3587786 2.3498099-2.3587786zm-14.09885931 0c1.29776416 0 2.34980988 1.0560612 2.34980988 2.3587786 0 1.3027175-1.05204572 2.3587786-2.34980988 2.3587786-1.29776417 0-2.34980989-1.0560611-2.34980989-2.3587786 0-1.3027174 1.05204572-2.3587786 2.34980989-2.3587786zm84.20152091 0c1.2977642 0 2.3498099 1.0560612 2.3498099 2.3587786 0 1.3027175-1.0520457 2.3587786-2.3498099 2.3587786s-2.3498099-1.0560611-2.3498099-2.3587786c0-1.3027174 1.0520457-2.3587786 2.3498099-2.3587786zm-41.904943 0c1.2977642 0 2.3498099 1.0560612 2.3498099 2.3587786 0 1.3027175-1.0520457 2.3587786-2.3498099 2.3587786-1.2977641 0-2.3498099-1.0560611-2.3498099-2.3587786 0-1.3027174 1.0520458-2.3587786 2.3498099-2.3587786zm56.0038022 0c1.297764 0 2.34981 1.0560612 2.34981 2.3587786 0 1.3027175-1.052046 2.3587786-2.34981 2.3587786-1.2977641 0-2.3498098-1.0560611-2.3498098-2.3587786 0-1.3027174 1.0520457-2.3587786 2.3498098-2.3587786zm-27.8060835 0c1.2977641 0 2.3498098 1.0560612 2.3498098 2.3587786 0 1.3027175-1.0520457 2.3587786-2.3498098 2.3587786-1.2977642 0-2.3498099-1.0560611-2.3498099-2.3587786 0-1.3027174 1.0520457-2.3587786 2.3498099-2.3587786zm-14.0988594 0c1.2977642 0 2.3498099 1.0560612 2.3498099 2.3587786 0 1.3027175-1.0520457 2.3587786-2.3498099 2.3587786-1.2977641 0-2.3498098-1.0560611-2.3498098-2.3587786 0-1.3027174 1.0520457-2.3587786 2.3498098-2.3587786zm-28.5893536 0c1.2977642 0 2.3498099 1.0560612 2.3498099 2.3587786 0 1.3027175-1.0520457 2.3587786-2.3498099 2.3587786-1.2977641 0-2.3498098-1.0560611-2.3498098-2.3587786 0-1.3027174 1.0520457-2.3587786 2.3498098-2.3587786zm42.688213-14.1526718c1.2977641 0 2.3498098 1.0560612 2.3498098 2.3587787 0 1.3027174-1.0520457 2.3587786-2.3498098 2.3587786-1.2977642 0-2.3498099-1.0560612-2.3498099-2.3587786 0-1.3027175 1.0520457-2.3587787 2.3498099-2.3587787zm-14.0988594 0c1.2977642 0 2.3498099 1.0560612 2.3498099 2.3587787 0 1.3027174-1.0520457 2.3587786-2.3498099 2.3587786-1.2977641 0-2.3498098-1.0560612-2.3498098-2.3587786 0-1.3027175 1.0520457-2.3587787 2.3498098-2.3587787zm41.9049429 0c1.297764 0 2.34981 1.0560612 2.34981 2.3587787 0 1.3027174-1.052046 2.3587786-2.34981 2.3587786-1.2977641 0-2.3498098-1.0560612-2.3498098-2.3587786 0-1.3027175 1.0520457-2.3587787 2.3498098-2.3587787zm-14.0988592 0c1.2977642 0 2.3498099 1.0560612 2.3498099 2.3587787 0 1.3027174-1.0520457 2.3587786-2.3498099 2.3587786s-2.3498099-1.0560612-2.3498099-2.3587786c0-1.3027175 1.0520457-2.3587787 2.3498099-2.3587787zm-41.904943 0c1.2977642 0 2.3498099 1.0560612 2.3498099 2.3587787 0 1.3027174-1.0520457 2.3587786-2.3498099 2.3587786-1.2977641 0-2.3498099-1.0560612-2.3498099-2.3587786 0-1.3027175 1.0520458-2.3587787 2.3498099-2.3587787zm-13.7072243 0c1.2977642 0 2.3498099 1.0560612 2.3498099 2.3587787 0 1.3027174-1.0520457 2.3587786-2.3498099 2.3587786s-2.3498099-1.0560612-2.3498099-2.3587786c0-1.3027175 1.0520457-2.3587787 2.3498099-2.3587787zm41.904943-13.7595419c1.2977641 0 2.3498098 1.0560611 2.3498098 2.3587786 0 1.3027174-1.0520457 2.3587786-2.3498098 2.3587786-1.2977642 0-2.3498099-1.0560612-2.3498099-2.3587786 0-1.3027175 1.0520457-2.3587786 2.3498099-2.3587786zm-14.0988594 0c1.2977642 0 2.3498099 1.0560611 2.3498099 2.3587786 0 1.3027174-1.0520457 2.3587786-2.3498099 2.3587786-1.2977641 0-2.3498098-1.0560612-2.3498098-2.3587786 0-1.3027175 1.0520457-2.3587786 2.3498098-2.3587786zm41.9049429 0c1.297764 0 2.34981 1.0560611 2.34981 2.3587786 0 1.3027174-1.052046 2.3587786-2.34981 2.3587786-1.2977641 0-2.3498098-1.0560612-2.3498098-2.3587786 0-1.3027175 1.0520457-2.3587786 2.3498098-2.3587786zm-14.0988592 0c1.2977642 0 2.3498099 1.0560611 2.3498099 2.3587786 0 1.3027174-1.0520457 2.3587786-2.3498099 2.3587786s-2.3498099-1.0560612-2.3498099-2.3587786c0-1.3027175 1.0520457-2.3587786 2.3498099-2.3587786zm-13.7072243-14.1526718c1.2977641 0 2.3498098 1.05606116 2.3498098 2.35877863 0 1.30271746-1.0520457 2.35877862-2.3498098 2.35877862-1.2977642 0-2.3498099-1.05606116-2.3498099-2.35877862 0-1.30271747 1.0520457-2.35877863 2.3498099-2.35877863zm-14.0988594 0c1.2977642 0 2.3498099 1.05606116 2.3498099 2.35877863 0 1.30271746-1.0520457 2.35877862-2.3498099 2.35877862-1.2977641 0-2.3498098-1.05606116-2.3498098-2.35877862 0-1.30271747 1.0520457-2.35877863 2.3498098-2.35877863zm41.9049429 0c1.297764 0 2.34981 1.05606116 2.34981 2.35877863 0 1.30271746-1.052046 2.35877862-2.34981 2.35877862-1.2977641 0-2.3498098-1.05606116-2.3498098-2.35877862 0-1.30271747 1.0520457-2.35877863 2.3498098-2.35877863zm-14.0988592 0c1.2977642 0 2.3498099 1.05606116 2.3498099 2.35877863 0 1.30271746-1.0520457 2.35877862-2.3498099 2.35877862s-2.3498099-1.05606116-2.3498099-2.35877862c0-1.30271747 1.0520457-2.35877863 2.3498099-2.35877863z" fill="#e3e6ed" fill-rule="evenodd"/></svg>